<svg xmlns="http://www.w3.org/2000/svg" width="64" height="64" fill="none"><path fill="url(#a)" fill-rule="evenodd" d="M32 64c17.673 0 32-14.327 32-32C64 14.327 49.673 0 32 0 14.327 0 0 14.327 0 32c0 17.673 14.327 32 32 32Zm23.548-35.322c-2.984 3.49-7.187 5.662-11.844 5.662-9.052 0-16.39-8.211-16.39-18.341 0-2.549.465-4.976 1.304-7.181-11.343 1.723-20.035 11.517-20.035 23.34 0 3.45.74 6.728 2.07 9.682 1.349-1.255 3.245-2.036 5.344-2.036 4.095 0 7.415 2.97 7.415 6.634 0 2.46-1.497 4.608-3.72 5.753a23.5 23.5 0 0 0 12.5 3.578c13.04 0 23.61-10.57 23.61-23.61 0-1.183-.087-2.345-.254-3.48Z" clip-rule="evenodd"/><defs><linearGradient id="a" x1="32" x2="34" y1="14.968" y2="85" gradientUnits="userSpaceOnUse"><stop stop-color="#D5DBE6"/><stop offset="1" stop-color="#04070D"/></linearGradient></defs></svg>