<svg xmlns="http://www.w3.org/2000/svg" width="163" height="62" fill="none"><path fill="url(#a)" fill-rule="evenodd" d="M20 51c11.046 0 20-8.954 20-20s-8.954-20-20-20S0 19.954 0 31s8.954 20 20 20Zm14.717-22.076c-1.865 2.18-4.491 3.539-7.402 3.539-5.657 0-10.244-5.133-10.244-11.464 0-1.592.29-3.11.815-4.488C10.796 17.588 5.364 23.71 5.364 31.1c0 2.156.463 4.205 1.294 6.051.843-.784 2.028-1.272 3.34-1.272 2.56 0 4.635 1.856 4.635 4.146 0 1.538-.936 2.88-2.325 3.596a14.687 14.687 0 0 0 7.812 2.235c8.15 0 14.756-6.606 14.756-14.756 0-.739-.054-1.465-.159-2.175Z" clip-rule="evenodd"/><path fill="url(#b)" d="M46.944 47c-.448 0-.672-.16-.672-.48 0-.352.32-.576.96-.672l.96-.144c.704-.096 1.184-.256 1.44-.48.288-.256.496-.72.624-1.392l6.528-28.224c.16-.672.16-1.12 0-1.344-.16-.224-.56-.4-1.2-.528l-.96-.192c-.416-.096-.624-.272-.624-.528 0-.384.288-.576.864-.576h8.688c.48 0 .672.192.576.576-.064.288-.272.464-.624.528l-1.344.192c-.704.096-1.184.272-1.44.528s-.464.72-.624 1.392l-6.24 26.88c-.256 1.152-.096 1.984.48 2.496s1.408.768 2.496.768c1.216 0 2.464-.464 3.744-1.392 1.28-.928 2.336-2.384 3.168-4.368l1.44-3.36c.16-.416.416-.624.768-.624.48 0 .64.272.48.816l-2.688 9.024c-.192.736-.672 1.104-1.44 1.104h-15.36Zm23.283.432c-1.152 0-2.048-.496-2.688-1.488-.64-.992-.96-2.448-.96-4.368 0-1.824.256-3.648.768-5.472a25.275 25.275 0 0 1 2.112-5.28c.896-1.664 1.904-3.136 3.024-4.416 1.152-1.28 2.352-2.288 3.6-3.024 1.28-.768 2.544-1.152 3.792-1.152.608 0 1.184.128 1.728.384.544.224.992.592 1.344 1.104.192.288.384.432.576.432.192 0 .384-.144.576-.432.352-.512.64-.832.864-.96.224-.16.432-.24.624-.24.416 0 .576.224.48.672l-4.272 18.384c-.48 2.08-.16 3.12.96 3.12.736 0 1.392-.496 1.968-1.488.608-.992 1.216-2.528 1.824-4.608.096-.352.304-.528.624-.528.224 0 .368.096.432.288.064.192.064.416 0 .672-.608 3.008-1.424 5.168-2.448 6.48-1.024 1.28-2.256 1.92-3.696 1.92-1.248 0-2.144-.528-2.688-1.584-.512-1.056-.56-2.496-.144-4.32l.624-2.64c.064-.224.016-.352-.144-.384-.128-.032-.24.048-.336.24-1.76 3.232-3.328 5.488-4.704 6.768-1.344 1.28-2.624 1.92-3.84 1.92Zm1.2-2.448c.768 0 1.616-.464 2.544-1.392.928-.928 1.84-2.128 2.736-3.6a39.278 39.278 0 0 0 2.544-4.752 35.667 35.667 0 0 0 1.824-4.896c.48-1.568.72-2.896.72-3.984 0-1.952-.688-2.928-2.064-2.928-.832 0-1.712.384-2.64 1.152-.928.736-1.824 1.744-2.688 3.024-.832 1.28-1.6 2.736-2.304 4.368a31.997 31.997 0 0 0-1.632 5.04 21.691 21.691 0 0 0-.624 5.088c0 1.12.128 1.888.384 2.304.288.384.688.576 1.2.576Zm17.886 1.392 4.56-19.152c.16-.704.176-1.248.048-1.632-.096-.416-.384-.624-.864-.624-.576 0-1.216.432-1.92 1.296-.672.832-1.44 2.432-2.304 4.8-.128.416-.352.624-.672.624-.48 0-.608-.288-.384-.864.704-2.208 1.44-3.936 2.208-5.184.8-1.248 1.6-2.128 2.4-2.64.8-.512 1.536-.768 2.208-.768 1.056 0 1.808.4 2.256 1.2.448.768.464 2.048.048 3.84l-1.2 5.184c-.032.224.016.352.144.384.128.032.24-.048.336-.24 1.248-2.592 2.448-4.64 3.6-6.144 1.152-1.536 2.24-2.624 3.264-3.264 1.024-.64 1.952-.96 2.784-.96 1.184 0 2.048.48 2.592 1.44s.544 2.432 0 4.416l-3.648 13.92c-.224.896-.24 1.568-.048 2.016.192.448.544.672 1.056.672.64 0 1.264-.416 1.872-1.248.64-.864 1.296-2.48 1.968-4.848.096-.352.304-.528.624-.528.256 0 .4.096.432.288.064.192.064.416 0 .672-.608 2.176-1.264 3.888-1.968 5.136-.704 1.216-1.424 2.064-2.16 2.544-.704.48-1.424.72-2.16.72-1.152 0-2.016-.48-2.592-1.44-.576-.96-.608-2.448-.096-4.464l3.696-13.92c.352-1.248.4-2.112.144-2.592-.224-.48-.56-.72-1.008-.72-.704 0-1.504.448-2.4 1.344-.896.864-1.808 2.064-2.736 3.6-.928 1.504-1.84 3.216-2.736 5.136a67.139 67.139 0 0 0-2.448 6 60.816 60.816 0 0 0-1.728 6.096c-.096.352-.32.528-.672.528h-1.968c-.448 0-.624-.208-.528-.624Zm24.888 1.056c-1.184 0-2.096-.496-2.736-1.488-.64-.992-.96-2.448-.96-4.368 0-1.824.256-3.648.768-5.472a25.275 25.275 0 0 1 2.112-5.28c.896-1.664 1.904-3.136 3.024-4.416 1.152-1.28 2.352-2.288 3.6-3.024 1.28-.768 2.544-1.152 3.792-1.152.864 0 1.616.224 2.256.672.448.288.72.192.816-.288l1.536-6.336c.16-.576.16-.976 0-1.2-.128-.224-.416-.352-.864-.384l-1.44-.144c-.48-.032-.688-.24-.624-.624.064-.288.288-.464.672-.528a28.051 28.051 0 0 0 3.072-.672c.896-.288 1.616-.656 2.16-1.104.256-.192.496-.288.72-.288.384 0 .528.24.432.72l-6.816 29.52c-.48 2.08-.16 3.12.96 3.12.736 0 1.392-.496 1.968-1.488.608-.992 1.216-2.528 1.824-4.608.096-.352.304-.528.624-.528.224 0 .368.096.432.288.064.192.064.416 0 .672-.608 3.008-1.456 5.168-2.544 6.48-1.056 1.28-2.304 1.92-3.744 1.92-1.248 0-2.144-.528-2.688-1.584-.512-1.056-.56-2.496-.144-4.32l.528-2.208c.064-.224.016-.352-.144-.384-.128-.032-.24.048-.336.24-1.536 3.008-2.992 5.136-4.368 6.384-1.376 1.248-2.672 1.872-3.888 1.872Zm1.152-2.448c.768 0 1.616-.464 2.544-1.392.928-.928 1.84-2.128 2.736-3.6a39.278 39.278 0 0 0 2.544-4.752 35.667 35.667 0 0 0 1.824-4.896c.48-1.568.72-2.896.72-3.984 0-1.952-.688-2.928-2.064-2.928-.832 0-1.712.384-2.64 1.152-.928.736-1.824 1.744-2.688 3.024-.832 1.28-1.6 2.736-2.304 4.368a31.997 31.997 0 0 0-1.632 5.04 21.691 21.691 0 0 0-.624 5.088c0 1.12.144 1.888.432 2.304.32.384.704.576 1.152.576Zm25.134-27.024c-.608 0-1.12-.208-1.536-.624a2.356 2.356 0 0 1-.576-1.584c0-.864.256-1.552.768-2.064.544-.512 1.152-.768 1.824-.768.64 0 1.168.208 1.584.624.448.384.672.896.672 1.536 0 .896-.272 1.6-.816 2.112a2.71 2.71 0 0 1-1.92.768Zm-3.936 29.52c-1.056 0-1.808-.384-2.256-1.152-.448-.8-.464-2.096-.048-3.888l3.552-15.216c.16-.704.176-1.248.048-1.632-.096-.416-.384-.624-.864-.624-.576 0-1.216.432-1.92 1.296-.672.832-1.44 2.432-2.304 4.8-.128.416-.352.624-.672.624-.48 0-.608-.288-.384-.864.704-2.208 1.44-3.936 2.208-5.184.8-1.248 1.6-2.128 2.4-2.64.8-.512 1.536-.768 2.208-.768 1.12 0 1.904.4 2.352 1.2.448.768.464 2.048.048 3.84l-3.552 15.216c-.16.704-.192 1.264-.096 1.68.128.384.432.576.912.576.576 0 1.2-.416 1.872-1.248.704-.864 1.488-2.48 2.352-4.848.128-.416.352-.624.672-.624.48 0 .608.288.384.864-.672 2.176-1.424 3.904-2.256 5.184-.8 1.248-1.6 2.128-2.4 2.64-.8.512-1.552.768-2.256.768Zm13.444-.048c-1.984 0-3.552-.816-4.704-2.448-1.152-1.664-1.728-3.904-1.728-6.72 0-2.08.336-4.08 1.008-6 .672-1.92 1.552-3.632 2.64-5.136 1.12-1.504 2.352-2.688 3.696-3.552 1.376-.896 2.752-1.344 4.128-1.344 1.984 0 3.552.816 4.704 2.448 1.152 1.632 1.728 3.872 1.728 6.72 0 2.08-.336 4.08-1.008 6-.672 1.92-1.568 3.632-2.688 5.136-1.088 1.504-2.32 2.704-3.696 3.6-1.344.864-2.704 1.296-4.08 1.296Zm-.096-1.152c1.024 0 2.016-.496 2.976-1.488.992-.992 1.888-2.304 2.688-3.936.8-1.632 1.44-3.44 1.92-5.424.48-2.016.72-4.032.72-6.048 0-4-1.04-6-3.12-6-.992 0-1.984.496-2.976 1.488-.992.96-1.888 2.256-2.688 3.888-.768 1.632-1.392 3.456-1.872 5.472a25.429 25.429 0 0 0-.72 6c0 4.032 1.024 6.048 3.072 6.048Z"/><defs><linearGradient id="a" x1="20" x2="20" y1="20.355" y2="57.129" gradientUnits="userSpaceOnUse"><stop stop-color="#D5DBE6"/><stop offset="1" stop-color="#04070D"/></linearGradient><linearGradient id="b" x1="105.5" x2="105.5" y1="14.5" y2="71.5" gradientUnits="userSpaceOnUse"><stop stop-color="#D5DBE6"/><stop offset="1" stop-color="#04070D"/></linearGradient></defs></svg>