<svg xmlns="http://www.w3.org/2000/svg" width="74" height="74" fill="none"><mask id="a" fill="#fff"><path fill-rule="evenodd" d="M36.538 73.077c20.18 0 36.539-16.359 36.539-36.538C73.077 16.358 56.718 0 36.539 0 16.358 0 0 16.359 0 36.538c0 20.18 16.359 36.539 36.538 36.539Zm26.89-40.33c-3.407 3.984-8.206 6.465-13.523 6.465-10.336 0-18.714-9.376-18.714-20.943 0-2.91.53-5.68 1.488-8.2C19.728 12.038 9.803 23.22 9.803 36.722c0 3.94.845 7.681 2.363 11.054 1.54-1.433 3.705-2.324 6.103-2.324 4.676 0 8.466 3.391 8.466 7.575 0 2.809-1.709 5.261-4.247 6.569a26.832 26.832 0 0 0 14.273 4.084c14.889 0 26.958-12.07 26.958-26.958 0-1.35-.099-2.677-.29-3.974Z" clip-rule="evenodd"/></mask><path fill="#fff" fill-rule="evenodd" d="M36.538 73.077c20.18 0 36.539-16.359 36.539-36.538C73.077 16.358 56.718 0 36.539 0 16.358 0 0 16.359 0 36.538c0 20.18 16.359 36.539 36.538 36.539Zm26.89-40.33c-3.407 3.984-8.206 6.465-13.523 6.465-10.336 0-18.714-9.376-18.714-20.943 0-2.91.53-5.68 1.488-8.2C19.728 12.038 9.803 23.22 9.803 36.722c0 3.94.845 7.681 2.363 11.054 1.54-1.433 3.705-2.324 6.103-2.324 4.676 0 8.466 3.391 8.466 7.575 0 2.809-1.709 5.261-4.247 6.569a26.832 26.832 0 0 0 14.273 4.084c14.889 0 26.958-12.07 26.958-26.958 0-1.35-.099-2.677-.29-3.974Z" clip-rule="evenodd"/><path fill="#fff" d="m63.428 32.747 2.645-.39-.858-5.813-3.819 4.465 2.032 1.738ZM32.68 10.07l2.499.95 1.63-4.281-4.53.688.401 2.643ZM12.166 47.775l-2.438 1.098 1.53 3.399 2.73-2.54-1.822-1.957Zm10.322 11.82-1.225-2.377-4.177 2.152 3.984 2.492 1.418-2.267Zm47.915-23.056c0 18.703-15.162 33.864-33.865 33.864v5.347c21.657 0 39.213-17.555 39.213-39.212h-5.348ZM36.538 2.673c18.704 0 33.865 15.161 33.865 33.864h5.347c0-21.656-17.555-39.212-39.212-39.212v5.348ZM2.675 36.538c0-18.703 15.161-33.864 33.864-33.864v-5.348c-21.656 0-39.212 17.556-39.212 39.212h5.348Zm33.864 33.865c-18.703 0-33.864-15.162-33.864-33.865h-5.348c0 21.657 17.556 39.213 39.212 39.213v-5.348Zm13.367-28.517c6.185 0 11.7-2.893 15.555-7.402l-4.063-3.475c-2.959 3.46-7.043 5.53-11.492 5.53v5.347ZM28.517 18.269c0 12.753 9.301 23.617 21.388 23.617v-5.347c-8.584 0-16.04-7.89-16.04-18.27h-5.348Zm1.664-9.15a25.708 25.708 0 0 0-1.664 9.15h5.347c0-2.584.471-5.033 1.314-7.248l-4.997-1.902ZM12.476 36.72c0-12.16 8.94-22.236 20.605-24.008l-.803-5.286C18.039 9.589 7.129 21.879 7.129 36.72h5.347Zm2.128 9.957a24.189 24.189 0 0 1-2.128-9.957H7.13c0 4.325.928 8.44 2.6 12.152l4.875-2.195Zm3.665-3.9c-3.06 0-5.879 1.137-7.924 3.04l3.642 3.915c1.036-.963 2.546-1.609 4.282-1.609v-5.347Zm11.14 10.248c0-5.932-5.275-10.249-11.14-10.249v5.347c3.487 0 5.793 2.466 5.793 4.902h5.347Zm-5.697 8.945c3.29-1.695 5.697-4.989 5.697-8.945h-5.347c0 1.662-1.013 3.272-2.799 4.192l2.449 4.753Zm13.049-.965a24.16 24.16 0 0 1-12.856-3.678l-2.835 4.534a29.506 29.506 0 0 0 15.691 4.49v-5.346ZM61.046 36.72c0 13.412-10.873 24.285-24.285 24.285v5.347c16.365 0 29.632-13.267 29.632-29.632h-5.347Zm-.263-3.583a24.44 24.44 0 0 1 .263 3.583h5.347c0-1.481-.11-2.939-.32-4.365l-5.29.782Z" mask="url(#a)"/></svg>